# xmcd CD database file
#
# Track frame offsets:
#	150
#	12637
#	24381
#	36872
#	50546
#	61580
#	75766
#	86167
#	101731
#	115997
#	143071
#	158613
#	172926
#	183964
#	197493
#	210362
#	229431
#	243337
#	266766
#	284185
#
# Disc length: 3957 seconds
#
# Revision: 0
# Processed by: cddbd v1.5.2PL0 Copyright (c) Steve Scherf et al.
# Submitted via: ACXtractor (MTCDDB.DLL V2003.07.15)
#
DISCID=0c0f7314
DTITLE=Hank Koopman and Donna Marie - Ramblin Rose
DYEAR=1998
DGENRE=Country
TTITLE0=Down in the Carribean
TTITLE1=Have you ever been Lonely
TTITLE2=Jealous Heart
TTITLE3=Scarlet Ribbons
TTITLE4=Ramblin' Rose
TTITLE5=Nobodys Darling but Mine
TTITLE6=Bummin' Around
TTITLE7=The Prisoners Song
TTITLE8=I'm so Lonesome I Could Cry
TTITLE9=Slim Whitman Medley
TTITLE10=Letter Edged in Black
TTITLE11=When my Blue Moon Turns to Gold
TTITLE12=The Old Spinning Wheel
TTITLE13=Anytime
TTITLE14=Under your spell Again
TTITLE15=Sad to see the Good Ones Getting Old
TTITLE16=Orange Blossom Special
TTITLE17=The Winner
TTITLE18=Blue eyes Crying in the Rain
TTITLE19=Just a Wanderer
EXTD=ID3G:   2 YEAR: 1998
EXTT0=
EXTT1=
EXTT2=
EXTT3=
EXTT4=
EXTT5=
EXTT6=
EXTT7=
EXTT8=
EXTT9=
EXTT10=
EXTT11=
EXTT12=
EXTT13=
EXTT14=
EXTT15=
EXTT16=
EXTT17=
EXTT18=
EXTT19=
PLAYORDER=
